<?xml version="1.0" encoding="UTF-8"?>
<svg id="Layer_1" xmlns="http://www.w3.org/2000/svg" version="1.1" xmlns:xlink="http://www.w3.org/1999/xlink" viewBox="0 0 595.28 841.89">
  <!-- Generator: Adobe Illustrator 29.0.0, SVG Export Plug-In . SVG Version: 2.1.0 Build 186)  -->
  <defs>
    <style>
      .st0 {
        fill: url(#linear-gradient2);
      }

      .st1 {
        fill: url(#linear-gradient1);
      }

      .st2 {
        fill: url(#linear-gradient);
      }
    </style>
    <linearGradient id="linear-gradient" x1="349.39" y1="379.5" x2="271.39" y2="351.11" gradientUnits="userSpaceOnUse">
      <stop offset="0" stop-color="#2bb673"/>
      <stop offset="1" stop-color="#1c75bc"/>
    </linearGradient>
    <linearGradient id="linear-gradient1" x1="415.55" y1="408.97" x2="366.73" y2="391.2" xlink:href="#linear-gradient"/>
    <linearGradient id="linear-gradient2" x1="433.03" y1="345.22" x2="110.03" y2="227.66" xlink:href="#linear-gradient"/>
  </defs>
  <path class="st2" d="M336.26,345.58l.22-.1-50.94-33.25-6.92,60.43.22-.1c-.08,5.21.98,10.52,3.35,15.56,8.29,17.65,29.33,25.24,46.98,16.94,17.65-8.29,25.24-29.33,16.94-46.98-2.37-5.04-5.77-9.25-9.84-12.51Z"/>
  <path class="st1" d="M406.77,386.61l.12-.07-32.03-17.68-1.47,36.55.12-.07c.18,3.13,1.06,6.27,2.7,9.19,5.76,10.22,18.71,13.84,28.93,8.08,10.22-5.76,13.84-18.71,8.08-28.93-1.64-2.92-3.87-5.29-6.46-7.07Z"/>
  <path class="st0" d="M459,260.06c0-9.37-15.81-16.97-35.31-16.97-9.08,0-17.35,1.65-23.6,4.35-4.97-5.28-12.38-9.25-21.07-11.06-1.99-14.74-20.85-26.31-43.84-26.31-19.32,0-35.72,8.17-41.65,19.53-.71.07-1.4.17-2.09.27-9.75-5.67-24.13-9.26-40.18-9.26-22.7,0-42.06,7.17-49.7,17.26-7.43.77-14.21,3.02-19.77,6.33-1.79-13.29-14.45-23.59-29.81-23.59-16.59,0-30.04,12.01-30.04,26.83,0,2.63.43,5.17,1.22,7.57-14.13.1-25.53,5.91-25.53,13.07,0,3.74,3.12,7.11,8.1,9.49-12.07,4.41-19.57,10.55-19.57,17.34,0,12.83,26.75,23.34,60.64,24.24-4.72,3.47-7.44,7.56-7.44,11.93,0,12.63,22.69,22.87,50.68,22.87s50.68-10.24,50.68-22.87c0-5.09-3.69-9.79-9.92-13.59,14.09-1.37,24.6-6.65,24.6-12.95s-10.84-11.74-25.27-13.01c8.04-4.06,13.96-10.21,16.33-17.37,1.59.07,3.19.11,4.82.11,9.22,0,17.89-1.18,25.45-3.27,5.95,3.47,13.62,5.56,22.01,5.56.87,0,1.73-.03,2.58-.07-1.66,2.47-2.58,5.16-2.58,7.98,0,11.84,16.07,21.44,35.89,21.44,11.52,0,21.76-3.24,28.32-8.28.51,8.17,11.86,14.7,25.78,14.7,6.76,0,12.92-1.54,17.52-4.06,4.42,2.76,11.11,4.52,18.6,4.52,13.3,0,24.08-5.54,24.08-12.38,0-4.72-5.13-8.82-12.67-10.91,3.35-2.26,5.33-5.08,5.33-8.13,0-2.15-.99-4.19-2.75-5.99,11.93-2.72,20.18-8.56,20.18-15.33Z"/>
</svg>